<svg xmlns="http://www.w3.org/2000/svg" viewBox="0 0 512 512"><defs><linearGradient id="bg" x1="0" y1="0" x2="0" y2="1"><stop offset="0" stop-color="#320a3c"/><stop offset="1" stop-color="#a028aa"/></linearGradient></defs><rect width="512" height="512" fill="url(#bg)"/><polygon points="74,470 92,400 110,470" fill="#ff8c2a" opacity="0.85"><animateTransform attributeName="transform" type="scale" additive="sum" values="1 1;1 1.28;1 0.9;1 1" dur="0.55s" repeatCount="indefinite"/></polygon><polygon points="82,470 92,425 102,470" fill="#ffd24a"><animateTransform attributeName="transform" type="scale" additive="sum" values="1 1;1 1.4;1 0.85;1 1" dur="0.68s" repeatCount="indefinite"/></polygon><polygon points="144,470 162,400 180,470" fill="#ff8c2a" opacity="0.85"><animateTransform attributeName="transform" type="scale" additive="sum" values="1 1;1 1.28;1 0.9;1 1" dur="0.64s" repeatCount="indefinite"/></polygon><polygon points="152,470 162,425 172,470" fill="#ffd24a"><animateTransform attributeName="transform" type="scale" additive="sum" values="1 1;1 1.4;1 0.85;1 1" dur="0.77s" repeatCount="indefinite"/></polygon><polygon points="253,470 271,400 289,470" fill="#ff8c2a" opacity="0.85"><animateTransform attributeName="transform" type="scale" additive="sum" values="1 1;1 1.28;1 0.9;1 1" dur="0.73s" repeatCount="indefinite"/></polygon><polygon points="261,470 271,425 281,470" fill="#ffd24a"><animateTransform attributeName="transform" type="scale" additive="sum" values="1 1;1 1.4;1 0.85;1 1" dur="0.86s" repeatCount="indefinite"/></polygon><polygon points="338,470 356,400 374,470" fill="#ff8c2a" opacity="0.85"><animateTransform attributeName="transform" type="scale" additive="sum" values="1 1;1 1.28;1 0.9;1 1" dur="0.82s" repeatCount="indefinite"/></polygon><polygon points="346,470 356,425 366,470" fill="#ffd24a"><animateTransform attributeName="transform" type="scale" additive="sum" values="1 1;1 1.4;1 0.85;1 1" dur="0.95s" repeatCount="indefinite"/></polygon><polygon points="427,470 445,400 463,470" fill="#ff8c2a" opacity="0.85"><animateTransform attributeName="transform" type="scale" additive="sum" values="1 1;1 1.28;1 0.9;1 1" dur="0.91s" repeatCount="indefinite"/></polygon><polygon points="435,470 445,425 455,470" fill="#ffd24a"><animateTransform attributeName="transform" type="scale" additive="sum" values="1 1;1 1.4;1 0.85;1 1" dur="1.04s" repeatCount="indefinite"/></polygon><ellipse cx="265" cy="452" rx="215" ry="34" fill="#000000" opacity="0.28"/><ellipse cx="265" cy="452" rx="60" ry="10" fill="none" stroke="#ffffff" stroke-width="3" opacity="0"><animate attributeName="rx" values="60;225" dur="3.6s" begin="0.0s" repeatCount="indefinite"/><animate attributeName="ry" values="10;36" dur="3.6s" begin="0.0s" repeatCount="indefinite"/><animate attributeName="opacity" values="0.55;0" dur="3.6s" begin="0.0s" repeatCount="indefinite"/></ellipse><ellipse cx="265" cy="452" rx="60" ry="10" fill="none" stroke="#ffffff" stroke-width="3" opacity="0"><animate attributeName="rx" values="60;225" dur="3.6s" begin="1.2s" repeatCount="indefinite"/><animate attributeName="ry" values="10;36" dur="3.6s" begin="1.2s" repeatCount="indefinite"/><animate attributeName="opacity" values="0.55;0" dur="3.6s" begin="1.2s" repeatCount="indefinite"/></ellipse><ellipse cx="265" cy="452" rx="60" ry="10" fill="none" stroke="#ffffff" stroke-width="3" opacity="0"><animate attributeName="rx" values="60;225" dur="3.6s" begin="2.4s" repeatCount="indefinite"/><animate attributeName="ry" values="10;36" dur="3.6s" begin="2.4s" repeatCount="indefinite"/><animate attributeName="opacity" values="0.55;0" dur="3.6s" begin="2.4s" repeatCount="indefinite"/></ellipse><g><animateTransform attributeName="transform" type="translate" values="0 0;0 -10;0 0" dur="3.73s" repeatCount="indefinite" calcMode="spline" keySplines="0.45 0 0.55 1;0.45 0 0.55 1"/><polygon points="120,300 60,235 150,260" fill="#c0c0c8"/><ellipse cx="265" cy="327" rx="180" ry="112" fill="#f0f0fa" stroke="#c0c0c8" stroke-width="6"/><g><ellipse cx="265" cy="330" rx="85" ry="60" fill="#c0c0c8" opacity="0.66"/><ellipse cx="265" cy="327" rx="65" ry="42" fill="#f0f0fa"/></g><circle cx="370" cy="180" r="90" fill="#f0f0fa" stroke="#c0c0c8" stroke-width="6"/><ellipse cx="462" cy="190" rx="42" ry="25" fill="#9696be" stroke="#787898" stroke-width="4"/><ellipse cx="462" cy="206" rx="37" ry="16" fill="#8787ab"/><ellipse cx="385" cy="170" rx="20" ry="20" fill="#ffffff"/><circle cx="389" cy="171" r="11" fill="#14141e"/><circle cx="386" cy="167" r="4" fill="#ffffff"/><ellipse cx="385" cy="170" rx="21" ry="21" fill="#f0f0fa" opacity="0"><animate attributeName="opacity" values="0;0;1;1;0" keyTimes="0;0.6;0.64;0.78;0.82" dur="6.0s" repeatCount="indefinite"/></ellipse><ellipse cx="350" cy="214" rx="20" ry="14" fill="#ffffff" opacity="0.5"/><ellipse cx="335" cy="132" rx="25" ry="17" fill="#ffffff" opacity="0.45"/><ellipse cx="190" cy="272" rx="50" ry="27" fill="#ffffff" opacity="0.28"/></g></svg>