<svg xmlns="http://www.w3.org/2000/svg" viewBox="0 0 512 512"><defs><linearGradient id="bg" x1="0" y1="0" x2="0" y2="1"><stop offset="0" stop-color="#141414"/><stop offset="1" stop-color="#50505a"/></linearGradient></defs><rect width="512" height="512" fill="url(#bg)"/><polygon points="65,470 83,400 101,470" fill="#ff8c2a" opacity="0.85"><animateTransform attributeName="transform" type="scale" additive="sum" values="1 1;1 1.28;1 0.9;1 1" dur="0.55s" repeatCount="indefinite"/></polygon><polygon points="73,470 83,425 93,470" fill="#ffd24a"><animateTransform attributeName="transform" type="scale" additive="sum" values="1 1;1 1.4;1 0.85;1 1" dur="0.68s" repeatCount="indefinite"/></polygon><polygon points="155,470 173,400 191,470" fill="#ff8c2a" opacity="0.85"><animateTransform attributeName="transform" type="scale" additive="sum" values="1 1;1 1.28;1 0.9;1 1" dur="0.64s" repeatCount="indefinite"/></polygon><polygon points="163,470 173,425 183,470" fill="#ffd24a"><animateTransform attributeName="transform" type="scale" additive="sum" values="1 1;1 1.4;1 0.85;1 1" dur="0.77s" repeatCount="indefinite"/></polygon><polygon points="261,470 279,400 297,470" fill="#ff8c2a" opacity="0.85"><animateTransform attributeName="transform" type="scale" additive="sum" values="1 1;1 1.28;1 0.9;1 1" dur="0.73s" repeatCount="indefinite"/></polygon><polygon points="269,470 279,425 289,470" fill="#ffd24a"><animateTransform attributeName="transform" type="scale" additive="sum" values="1 1;1 1.4;1 0.85;1 1" dur="0.86s" repeatCount="indefinite"/></polygon><polygon points="330,470 348,400 366,470" fill="#ff8c2a" opacity="0.85"><animateTransform attributeName="transform" type="scale" additive="sum" values="1 1;1 1.28;1 0.9;1 1" dur="0.82s" repeatCount="indefinite"/></polygon><polygon points="338,470 348,425 358,470" fill="#ffd24a"><animateTransform attributeName="transform" type="scale" additive="sum" values="1 1;1 1.4;1 0.85;1 1" dur="0.95s" repeatCount="indefinite"/></polygon><polygon points="452,470 470,400 488,470" fill="#ff8c2a" opacity="0.85"><animateTransform attributeName="transform" type="scale" additive="sum" values="1 1;1 1.28;1 0.9;1 1" dur="0.91s" repeatCount="indefinite"/></polygon><polygon points="460,470 470,425 480,470" fill="#ffd24a"><animateTransform attributeName="transform" type="scale" additive="sum" values="1 1;1 1.4;1 0.85;1 1" dur="1.04s" repeatCount="indefinite"/></polygon><ellipse cx="265" cy="452" rx="215" ry="34" fill="#000000" opacity="0.28"/><ellipse cx="265" cy="452" rx="60" ry="10" fill="none" stroke="#ffffff" stroke-width="3" opacity="0"><animate attributeName="rx" values="60;225" dur="3.6s" begin="0.0s" repeatCount="indefinite"/><animate attributeName="ry" values="10;36" dur="3.6s" begin="0.0s" repeatCount="indefinite"/><animate attributeName="opacity" values="0.55;0" dur="3.6s" begin="0.0s" repeatCount="indefinite"/></ellipse><ellipse cx="265" cy="452" rx="60" ry="10" fill="none" stroke="#ffffff" stroke-width="3" opacity="0"><animate attributeName="rx" values="60;225" dur="3.6s" begin="1.2s" repeatCount="indefinite"/><animate attributeName="ry" values="10;36" dur="3.6s" begin="1.2s" repeatCount="indefinite"/><animate attributeName="opacity" values="0.55;0" dur="3.6s" begin="1.2s" repeatCount="indefinite"/></ellipse><ellipse cx="265" cy="452" rx="60" ry="10" fill="none" stroke="#ffffff" stroke-width="3" opacity="0"><animate attributeName="rx" values="60;225" dur="3.6s" begin="2.4s" repeatCount="indefinite"/><animate attributeName="ry" values="10;36" dur="3.6s" begin="2.4s" repeatCount="indefinite"/><animate attributeName="opacity" values="0.55;0" dur="3.6s" begin="2.4s" repeatCount="indefinite"/></ellipse><g><animateTransform attributeName="transform" type="translate" values="0 0;0 -10;0 0" dur="2.73s" repeatCount="indefinite" calcMode="spline" keySplines="0.45 0 0.55 1;0.45 0 0.55 1"/><polygon points="120,300 60,235 150,260" fill="#a0cc60"/><ellipse cx="265" cy="327" rx="180" ry="112" fill="#c8ff78" stroke="#a0cc60" stroke-width="6"/><g><ellipse cx="265" cy="330" rx="85" ry="60" fill="#a0cc60" opacity="0.66"/><ellipse cx="265" cy="327" rx="65" ry="42" fill="#c8ff78"/></g><circle cx="370" cy="180" r="90" fill="#c8ff78" stroke="#a0cc60" stroke-width="6"/><ellipse cx="462" cy="190" rx="42" ry="25" fill="#6ebe1e" stroke="#589818" stroke-width="4"/><ellipse cx="462" cy="206" rx="37" ry="16" fill="#63ab1b"/><ellipse cx="385" cy="170" rx="20" ry="20" fill="#ffffff"/><circle cx="389" cy="171" r="11" fill="#14141e"/><circle cx="386" cy="167" r="4" fill="#ffffff"/><ellipse cx="385" cy="170" rx="21" ry="21" fill="#c8ff78" opacity="0"><animate attributeName="opacity" values="0;0;1;1;0" keyTimes="0;0.6;0.64;0.78;0.82" dur="4.5s" repeatCount="indefinite"/></ellipse><ellipse cx="350" cy="214" rx="20" ry="14" fill="#f0ffd7" opacity="0.5"/><ellipse cx="335" cy="132" rx="25" ry="17" fill="#ffffff" opacity="0.45"/><ellipse cx="190" cy="272" rx="50" ry="27" fill="#ffffff" opacity="0.28"/></g></svg>