<svg xmlns="http://www.w3.org/2000/svg" viewBox="0 0 512 512"><defs><linearGradient id="bg" x1="0" y1="0" x2="0" y2="1"><stop offset="0" stop-color="#281e0f"/><stop offset="1" stop-color="#b47828"/></linearGradient></defs><rect width="512" height="512" fill="url(#bg)"/><ellipse cx="265" cy="452" rx="215" ry="34" fill="#000000" opacity="0.28"/><ellipse cx="265" cy="452" rx="60" ry="10" fill="none" stroke="#ffffff" stroke-width="3" opacity="0"><animate attributeName="rx" values="60;225" dur="3.6s" begin="0.0s" repeatCount="indefinite"/><animate attributeName="ry" values="10;36" dur="3.6s" begin="0.0s" repeatCount="indefinite"/><animate attributeName="opacity" values="0.55;0" dur="3.6s" begin="0.0s" repeatCount="indefinite"/></ellipse><ellipse cx="265" cy="452" rx="60" ry="10" fill="none" stroke="#ffffff" stroke-width="3" opacity="0"><animate attributeName="rx" values="60;225" dur="3.6s" begin="1.2s" repeatCount="indefinite"/><animate attributeName="ry" values="10;36" dur="3.6s" begin="1.2s" repeatCount="indefinite"/><animate attributeName="opacity" values="0.55;0" dur="3.6s" begin="1.2s" repeatCount="indefinite"/></ellipse><ellipse cx="265" cy="452" rx="60" ry="10" fill="none" stroke="#ffffff" stroke-width="3" opacity="0"><animate attributeName="rx" values="60;225" dur="3.6s" begin="2.4s" repeatCount="indefinite"/><animate attributeName="ry" values="10;36" dur="3.6s" begin="2.4s" repeatCount="indefinite"/><animate attributeName="opacity" values="0.55;0" dur="3.6s" begin="2.4s" repeatCount="indefinite"/></ellipse><g><animateTransform attributeName="transform" type="translate" values="0 0;0 -10;0 0" dur="3.48s" repeatCount="indefinite" calcMode="spline" keySplines="0.45 0 0.55 1;0.45 0 0.55 1"/><animateTransform attributeName="transform" type="rotate" additive="sum" values="0 265 340;2.4 265 340;0 265 340;-2.4 265 340;0 265 340" dur="5.0s" repeatCount="indefinite"/><polygon points="120,300 60,235 150,260" fill="#a0cc60"/><ellipse cx="265" cy="327" rx="180" ry="112" fill="#c8ff78" stroke="#a0cc60" stroke-width="6"/><g><ellipse cx="265" cy="330" rx="85" ry="60" fill="#a0cc60" opacity="0.66"/><ellipse cx="265" cy="327" rx="65" ry="42" fill="#c8ff78"/></g><circle cx="370" cy="180" r="90" fill="#c8ff78" stroke="#a0cc60" stroke-width="6"/><ellipse cx="462" cy="190" rx="42" ry="25" fill="#6ebe1e" stroke="#589818" stroke-width="4"/><ellipse cx="462" cy="206" rx="37" ry="16" fill="#63ab1b"/><ellipse cx="385" cy="170" rx="20" ry="20" fill="#ffffff"/><circle cx="389" cy="171" r="11" fill="#14141e"/><circle cx="386" cy="167" r="4" fill="#ffffff"/><ellipse cx="385" cy="170" rx="21" ry="21" fill="#c8ff78" opacity="0"><animate attributeName="opacity" values="0;0;1;0;0" keyTimes="0;0.9;0.93;0.96;1" dur="5.0s" repeatCount="indefinite"/></ellipse><ellipse cx="350" cy="214" rx="20" ry="14" fill="#f0ffd7" opacity="0.5"/><ellipse cx="335" cy="132" rx="25" ry="17" fill="#ffffff" opacity="0.45"/><ellipse cx="190" cy="272" rx="50" ry="27" fill="#ffffff" opacity="0.28"/><g transform="translate(150,300)"><animateTransform attributeName="transform" type="rotate" additive="sum" values="-24 150 300;52 150 300;-24 150 300" dur="2.49s" repeatCount="indefinite" calcMode="spline" keySplines="0.4 0 0.2 1;0.4 0 0.2 1"/><rect x="-6" y="-10" width="12" height="90" rx="4" fill="#6b4a2a"/><path d="M6,-80 C40,-95 40,-45 6,-55 Z" fill="#b7bdca" stroke="#7d8290" stroke-width="2"/></g></g></svg>