<svg xmlns="http://www.w3.org/2000/svg" viewBox="0 0 512 512"><defs><linearGradient id="bg" x1="0" y1="0" x2="0" y2="1"><stop offset="0" stop-color="#0f3228"/><stop offset="1" stop-color="#28966e"/></linearGradient></defs><rect width="512" height="512" fill="url(#bg)"/><ellipse cx="265" cy="452" rx="215" ry="34" fill="#000000" opacity="0.28"/><ellipse cx="265" cy="452" rx="60" ry="10" fill="none" stroke="#ffffff" stroke-width="3" opacity="0"><animate attributeName="rx" values="60;225" dur="3.6s" begin="0.0s" repeatCount="indefinite"/><animate attributeName="ry" values="10;36" dur="3.6s" begin="0.0s" repeatCount="indefinite"/><animate attributeName="opacity" values="0.55;0" dur="3.6s" begin="0.0s" repeatCount="indefinite"/></ellipse><ellipse cx="265" cy="452" rx="60" ry="10" fill="none" stroke="#ffffff" stroke-width="3" opacity="0"><animate attributeName="rx" values="60;225" dur="3.6s" begin="1.2s" repeatCount="indefinite"/><animate attributeName="ry" values="10;36" dur="3.6s" begin="1.2s" repeatCount="indefinite"/><animate attributeName="opacity" values="0.55;0" dur="3.6s" begin="1.2s" repeatCount="indefinite"/></ellipse><ellipse cx="265" cy="452" rx="60" ry="10" fill="none" stroke="#ffffff" stroke-width="3" opacity="0"><animate attributeName="rx" values="60;225" dur="3.6s" begin="2.4s" repeatCount="indefinite"/><animate attributeName="ry" values="10;36" dur="3.6s" begin="2.4s" repeatCount="indefinite"/><animate attributeName="opacity" values="0.55;0" dur="3.6s" begin="2.4s" repeatCount="indefinite"/></ellipse><g><animateTransform attributeName="transform" type="translate" values="0 0;0 -10;0 0" dur="2.73s" repeatCount="indefinite" calcMode="spline" keySplines="0.45 0 0.55 1;0.45 0 0.55 1"/><polygon points="120,300 60,235 150,260" fill="#70cca0"/><ellipse cx="265" cy="327" rx="180" ry="112" fill="#8cffc8" stroke="#70cca0" stroke-width="6"/><g><ellipse cx="265" cy="330" rx="85" ry="60" fill="#70cca0" opacity="0.66"/><ellipse cx="265" cy="327" rx="65" ry="42" fill="#8cffc8"/></g><circle cx="370" cy="180" r="90" fill="#8cffc8" stroke="#70cca0" stroke-width="6"/><ellipse cx="462" cy="190" rx="42" ry="25" fill="#14c88c" stroke="#10a070" stroke-width="4"/><ellipse cx="462" cy="206" rx="37" ry="16" fill="#12b47e"/><ellipse cx="385" cy="170" rx="20" ry="20" fill="#ffffff"/><circle cx="389" cy="171" r="11" fill="#14141e"/><circle cx="386" cy="167" r="4" fill="#ffffff"/><ellipse cx="385" cy="170" rx="21" ry="21" fill="#8cffc8" opacity="0"><animate attributeName="opacity" values="0;0;1;1;0" keyTimes="0;0.6;0.64;0.78;0.82" dur="4.5s" repeatCount="indefinite"/></ellipse><ellipse cx="350" cy="214" rx="20" ry="14" fill="#e0fff0" opacity="0.5"/><ellipse cx="335" cy="132" rx="25" ry="17" fill="#ffffff" opacity="0.45"/><ellipse cx="190" cy="272" rx="50" ry="27" fill="#ffffff" opacity="0.28"/><g transform="translate(150,300)"><path d="M0,-46 22,-34 22,4 0,30 -22,4 -22,-34 Z" fill="#c9903f" stroke="#8a5f22" stroke-width="4"/><animateTransform attributeName="transform" type="translate" additive="sum" values="0 0;-18 0;0 0" dur="4.20s" repeatCount="indefinite"/></g></g></svg>