<svg xmlns="http://www.w3.org/2000/svg" viewBox="0 0 512 512"><defs><linearGradient id="bg" x1="0" y1="0" x2="0" y2="1"><stop offset="0" stop-color="#37230a"/><stop offset="1" stop-color="#c88c1e"/></linearGradient></defs><rect width="512" height="512" fill="url(#bg)"/><ellipse cx="265" cy="452" rx="215" ry="34" fill="#000000" opacity="0.28"/><ellipse cx="265" cy="452" rx="60" ry="10" fill="none" stroke="#ffffff" stroke-width="3" opacity="0"><animate attributeName="rx" values="60;225" dur="3.6s" begin="0.0s" repeatCount="indefinite"/><animate attributeName="ry" values="10;36" dur="3.6s" begin="0.0s" repeatCount="indefinite"/><animate attributeName="opacity" values="0.55;0" dur="3.6s" begin="0.0s" repeatCount="indefinite"/></ellipse><ellipse cx="265" cy="452" rx="60" ry="10" fill="none" stroke="#ffffff" stroke-width="3" opacity="0"><animate attributeName="rx" values="60;225" dur="3.6s" begin="1.2s" repeatCount="indefinite"/><animate attributeName="ry" values="10;36" dur="3.6s" begin="1.2s" repeatCount="indefinite"/><animate attributeName="opacity" values="0.55;0" dur="3.6s" begin="1.2s" repeatCount="indefinite"/></ellipse><ellipse cx="265" cy="452" rx="60" ry="10" fill="none" stroke="#ffffff" stroke-width="3" opacity="0"><animate attributeName="rx" values="60;225" dur="3.6s" begin="2.4s" repeatCount="indefinite"/><animate attributeName="ry" values="10;36" dur="3.6s" begin="2.4s" repeatCount="indefinite"/><animate attributeName="opacity" values="0.55;0" dur="3.6s" begin="2.4s" repeatCount="indefinite"/></ellipse><g><animateTransform attributeName="transform" type="translate" values="0 0;0 -10;0 0" dur="2.98s" repeatCount="indefinite" calcMode="spline" keySplines="0.45 0 0.55 1;0.45 0 0.55 1"/><polygon points="120,300 60,235 150,260" fill="#c0c0c8"/><ellipse cx="265" cy="327" rx="180" ry="112" fill="#f0f0fa" stroke="#c0c0c8" stroke-width="6"/><g><ellipse cx="265" cy="330" rx="85" ry="60" fill="#c0c0c8" opacity="0.66"/><ellipse cx="265" cy="327" rx="65" ry="42" fill="#f0f0fa"/></g><circle cx="370" cy="180" r="90" fill="#f0f0fa" stroke="#c0c0c8" stroke-width="6"/><ellipse cx="462" cy="190" rx="42" ry="25" fill="#9696be" stroke="#787898" stroke-width="4"/><ellipse cx="462" cy="206" rx="37" ry="16" fill="#8787ab"/><ellipse cx="385" cy="170" rx="20" ry="20" fill="#ffffff"/><circle cx="389" cy="171" r="11" fill="#14141e"/><circle cx="386" cy="167" r="4" fill="#ffffff"/><ellipse cx="385" cy="170" rx="21" ry="21" fill="#f0f0fa" opacity="0"><animate attributeName="opacity" values="0;0;1;1;0" keyTimes="0;0.6;0.64;0.78;0.82" dur="5.5s" repeatCount="indefinite"/></ellipse><ellipse cx="350" cy="214" rx="20" ry="14" fill="#ffffff" opacity="0.5"/><ellipse cx="335" cy="132" rx="25" ry="17" fill="#ffffff" opacity="0.45"/><ellipse cx="190" cy="272" rx="50" ry="27" fill="#ffffff" opacity="0.28"/><g transform="translate(150,300)"><animateTransform attributeName="transform" type="rotate" additive="sum" values="-18 150 300;46 150 300;-18 150 300" dur="4.00s" repeatCount="indefinite" calcMode="spline" keySplines="0.4 0 0.2 1;0.4 0 0.2 1"/><rect x="-5" y="-8" width="10" height="20" rx="3" fill="#33384a"/><rect x="-3" y="-98" width="6" height="92" fill="#7ef9ff" opacity="0.9"/><rect x="-1" y="-98" width="2" height="92" fill="#ffffff"/></g></g></svg>